<svg width="34" height="35" viewBox="0 0 34 35" fill="none" xmlns="http://www.w3.org/2000/svg">
<path d="M23.9062 1.22363H10.0938C9.53039 1.22436 8.99032 1.44578 8.59196 1.83934C8.19361 2.23289 7.96949 2.76646 7.96875 3.32303V31.6649C7.96949 32.2215 8.19361 32.755 8.59196 33.1486C8.99032 33.5421 9.53039 33.7636 10.0938 33.7643H23.9062C24.4696 33.7636 25.0097 33.5421 25.408 33.1486C25.8064 32.755 26.0305 32.2215 26.0312 31.6649V3.32303C26.0305 2.76646 25.8064 2.23289 25.408 1.83934C25.0097 1.44578 24.4696 1.22436 23.9062 1.22363ZM19.4862 2.27333L19.1874 3.32303H14.7588L14.4932 2.27333H19.4862ZM24.9688 31.6649C24.9684 31.9432 24.8563 32.21 24.6571 32.4067C24.458 32.6035 24.1879 32.7142 23.9062 32.7146H10.0938C9.81207 32.7142 9.54203 32.6035 9.34286 32.4067C9.14368 32.21 9.03162 31.9432 9.03125 31.6649V3.32303C9.03162 3.04474 9.14368 2.77796 9.34286 2.58118C9.54203 2.38441 9.81207 2.2737 10.0938 2.27333H13.3975L13.8284 3.97516C13.8572 4.0887 13.9235 4.1895 14.0169 4.26154C14.1102 4.33357 14.2253 4.37271 14.3438 4.37273H19.5898C19.7056 4.37273 19.8182 4.33536 19.9105 4.26632C20.0028 4.19728 20.0698 4.10034 20.1012 3.99025L20.5899 2.27333H23.9062C24.1879 2.2737 24.458 2.38441 24.6571 2.58118C24.8563 2.77796 24.9684 3.04474 24.9688 3.32303V31.6649Z" fill="#BB3800"/>
<path d="M14.3438 30.6152H10.625C10.4841 30.6152 10.349 30.6705 10.2493 30.769C10.1497 30.8674 10.0938 31.0009 10.0938 31.1401C10.0938 31.2793 10.1497 31.4128 10.2493 31.5112C10.349 31.6096 10.4841 31.6649 10.625 31.6649H14.3438C14.4846 31.6649 14.6198 31.6096 14.7194 31.5112C14.819 31.4128 14.875 31.2793 14.875 31.1401C14.875 31.0009 14.819 30.8674 14.7194 30.769C14.6198 30.6705 14.4846 30.6152 14.3438 30.6152Z" fill="#BB3800"/>
<path d="M16.4688 30.6152H15.9375C15.7966 30.6152 15.6615 30.6705 15.5618 30.769C15.4622 30.8674 15.4062 31.0009 15.4062 31.1401C15.4062 31.2793 15.4622 31.4128 15.5618 31.5112C15.6615 31.6096 15.7966 31.6649 15.9375 31.6649H16.4688C16.6096 31.6649 16.7448 31.6096 16.8444 31.5112C16.944 31.4128 17 31.2793 17 31.1401C17 31.0009 16.944 30.8674 16.8444 30.769C16.7448 30.6705 16.6096 30.6152 16.4688 30.6152Z" fill="#BB3800"/>
<path d="M18.8671 14.4198C18.8073 14.3843 18.741 14.3608 18.672 14.3507C18.6029 14.3405 18.5326 14.3439 18.4649 14.3606C18.3972 14.3774 18.3335 14.4071 18.2775 14.4481C18.2214 14.4891 18.1741 14.5407 18.1382 14.5998L14.9507 19.8483C14.8782 19.9677 14.8567 20.1106 14.8909 20.2456C14.925 20.3807 15.0121 20.4968 15.1329 20.5684C15.2537 20.64 15.3984 20.6613 15.5351 20.6275C15.6718 20.5937 15.7893 20.5077 15.8618 20.3884L19.0493 15.1399C19.0852 15.0808 19.109 15.0153 19.1192 14.9471C19.1295 14.8789 19.1261 14.8094 19.1092 14.7425C19.0922 14.6757 19.0621 14.6127 19.0206 14.5574C18.9791 14.502 18.9269 14.4552 18.8671 14.4198Z" fill="#BB3800"/>
<path d="M20.6023 14.5416C20.5587 14.4878 20.5048 14.443 20.4437 14.4098C20.3826 14.3765 20.3154 14.3555 20.246 14.3479C20.106 14.3326 19.9655 14.3728 19.8555 14.4598C19.7454 14.5468 19.6749 14.6735 19.6594 14.8118C19.6438 14.9502 19.6846 15.089 19.7726 15.1977L21.632 17.4939L19.7726 19.7901C19.6846 19.8988 19.6438 20.0376 19.6594 20.176C19.6749 20.3144 19.7454 20.441 19.8555 20.528C19.9655 20.615 20.106 20.6553 20.246 20.6399C20.3861 20.6246 20.5143 20.5549 20.6023 20.4462L22.7273 17.822C22.8028 17.7289 22.8439 17.6132 22.8439 17.4939C22.8439 17.3747 22.8028 17.259 22.7273 17.1659L20.6023 14.5416Z" fill="#BB3800"/>
<path d="M13.3977 20.4462C13.4857 20.5549 13.6139 20.6246 13.754 20.6399C13.894 20.6553 14.0345 20.615 14.1445 20.528C14.2546 20.441 14.3251 20.3144 14.3406 20.176C14.3562 20.0376 14.3154 19.8988 14.2273 19.7901L12.368 17.4939L14.2273 15.1977C14.271 15.1439 14.3034 15.0821 14.3228 15.0159C14.3423 14.9497 14.3483 14.8803 14.3406 14.8118C14.3329 14.7433 14.3117 14.677 14.278 14.6166C14.2444 14.5562 14.199 14.5029 14.1445 14.4598C14.0901 14.4168 14.0275 14.3847 13.9605 14.3655C13.8935 14.3463 13.8233 14.3403 13.754 14.3479C13.6846 14.3555 13.6174 14.3765 13.5563 14.4098C13.4952 14.443 13.4413 14.4878 13.3977 14.5416L11.2727 17.1659C11.1972 17.259 11.1561 17.3747 11.1561 17.4939C11.1561 17.6132 11.1972 17.7289 11.2727 17.822L13.3977 20.4462Z" fill="#BB3800"/>
</svg>
