<svg width="33" height="34" viewBox="0 0 33 34" fill="none" xmlns="http://www.w3.org/2000/svg">
<path d="M31.7197 16.1692L17.5987 2.21829C16.6069 1.23855 15.2885 0.69873 13.886 0.69873H3.00003C1.34543 0.69873 0 2.02795 0 3.66261V14.4175C0 15.8032 0.546399 17.1056 1.53809 18.0854L15.6592 32.0363C16.4729 32.8402 17.5994 33.3011 18.75 33.3011C19.9006 33.3011 21.027 32.8402 21.8408 32.0363L31.7197 22.2764C32.5334 21.4725 32.9999 20.3596 32.9999 19.2229C32.9999 18.0861 32.5335 16.9732 31.7197 16.1692ZM30.6592 21.2287L20.7803 30.9886C19.711 32.045 17.7891 32.045 16.7198 30.9886L2.59861 17.0375C1.89035 16.3378 1.49998 15.4073 1.49998 14.4174V3.66261C1.49998 2.8457 2.17308 2.18071 2.99995 2.18071H13.886C14.888 2.18071 15.8299 2.56638 16.5381 3.2661L30.6592 17.217C31.1939 17.7453 31.5 18.4761 31.5 19.2229C31.5 19.9696 31.1939 20.7004 30.6592 21.2287Z" fill="#5FC400"/>
<path d="M5.99998 3.6626C4.34545 3.6626 2.99995 4.99182 2.99995 6.62648C2.99995 8.26114 4.34545 9.59029 5.99998 9.59029C7.6545 9.59029 9 8.26107 9 6.62641C9 4.99175 7.65457 3.6626 5.99998 3.6626ZM5.99998 8.10838C5.1731 8.10838 4.5 7.44339 4.5 6.62641C4.5 5.8095 5.1731 5.1445 5.99998 5.1445C6.82685 5.1445 7.49995 5.8095 7.49995 6.62641C7.50002 7.44339 6.82692 8.10838 5.99998 8.10838Z" fill="#5FC400"/>
<path d="M12.9507 15.5898C13.8281 14.7229 13.8281 13.3126 12.9507 12.4458C12.6584 12.1571 12.6584 11.6867 12.9507 11.3987L13.4824 10.8741C13.763 10.5941 14.2573 10.5941 14.5423 10.8741C14.6836 11.0145 14.762 11.2005 14.762 11.398C14.762 11.5963 14.6844 11.7816 14.5423 11.9212C14.2493 12.2106 14.2493 12.6795 14.5416 12.9697C14.8345 13.2592 15.3099 13.2584 15.6028 12.9704C16.0277 12.5507 16.262 11.9921 16.262 11.398C16.262 10.8047 16.0277 10.2461 15.6028 9.82639C14.7533 8.98627 13.2693 8.98843 12.4212 9.82569L11.8894 10.3503C11.0135 11.2179 11.0135 12.6274 11.8901 13.4936C12.1824 13.7831 12.1824 14.2527 11.8901 14.5421L11.3591 15.066C11.0772 15.3468 10.5842 15.3453 10.2993 15.066C10.158 14.9256 10.0796 14.7397 10.0796 14.5421C10.0796 14.3439 10.1572 14.1579 10.2993 14.019C10.5923 13.7295 10.5923 13.2606 10.3 12.9705C10.007 12.681 9.53172 12.6818 9.23872 12.9698C8.8139 13.3895 8.57954 13.948 8.57954 14.5421C8.57954 15.1355 8.8139 15.6941 9.23872 16.1138C9.66355 16.5335 10.2289 16.765 10.8295 16.765C11.4309 16.765 11.9963 16.5335 12.4204 16.1138L12.9507 15.5898Z" fill="#5FC400"/>
<path d="M17.7239 18.2091C18.0169 17.9196 18.0169 17.4507 17.7239 17.1613L16.6634 16.1136L18.2542 14.5419L19.8457 16.1136C20.1387 16.403 20.6133 16.403 20.9062 16.1136C21.1992 15.8241 21.1992 15.3552 20.9062 15.0658L18.7844 12.9703C18.4914 12.6808 18.0168 12.6808 17.7239 12.9703L12.4211 18.2091C12.1282 18.4986 12.1282 18.9675 12.4211 19.2569L14.5423 21.3531C14.6887 21.4978 14.8807 21.5702 15.0726 21.5702C15.2644 21.5702 15.4563 21.4978 15.6029 21.3531C15.8958 21.0637 15.8958 20.5948 15.6029 20.3054L14.012 18.7331L15.6029 17.1614L16.6634 18.2091C16.8098 18.3538 17.0018 18.4262 17.1937 18.4262C17.3855 18.4262 17.5774 18.3538 17.7239 18.2091Z" fill="#5FC400"/>
<path d="M20.9062 18.2084C20.9062 18.2091 20.9062 18.2091 20.9062 18.2091L17.7231 21.3531C16.8479 22.2199 16.8479 23.6295 17.7238 24.4964C18.1626 24.9298 18.7389 25.1469 19.3146 25.1469C19.8911 25.1469 20.4675 24.9298 20.9062 24.4964L24.0878 21.3531C24.9653 20.4862 24.9653 19.0759 24.0878 18.2083C23.2105 17.343 21.7837 17.343 20.9062 18.2084ZM23.0274 20.3054L19.8457 23.4487C19.5535 23.7374 19.0774 23.7389 18.7852 23.4487C18.493 23.16 18.493 22.6897 18.7845 22.401L21.9668 19.2577C22.2583 18.9682 22.7359 18.969 23.0274 19.257C23.3196 19.5464 23.3196 20.0159 23.0274 20.3054Z" fill="#5FC400"/>
</svg>
