<svg width="41" height="42" viewBox="0 0 41 42" fill="none" xmlns="http://www.w3.org/2000/svg">
<path d="M3.84375 3.86328H5.125V5.12909H3.84375V3.86328Z" fill="#4628A4"/>
<path d="M6.40625 3.86328H7.6875V5.12909H6.40625V3.86328Z" fill="#4628A4"/>
<path d="M8.96875 3.86328H10.25V5.12909H8.96875V3.86328Z" fill="#4628A4"/>
<path d="M4.48438 19.686H18.5781C18.748 19.686 18.911 19.6193 19.0311 19.5006C19.1513 19.382 19.2188 19.221 19.2188 19.0531V8.92661C19.2188 8.75875 19.1513 8.59777 19.0311 8.47908C18.911 8.36038 18.748 8.2937 18.5781 8.2937H4.48438C4.31447 8.2937 4.15153 8.36038 4.03138 8.47908C3.91124 8.59777 3.84375 8.75875 3.84375 8.92661V19.0531C3.84375 19.221 3.91124 19.382 4.03138 19.5006C4.15153 19.6193 4.31447 19.686 4.48438 19.686ZM5.125 9.55951H17.9375V18.4202H5.125V9.55951Z" fill="#4628A4"/>
<path d="M4.48438 31.7111H18.5781C18.748 31.7111 18.911 31.6444 19.0311 31.5257C19.1513 31.407 19.2188 31.246 19.2188 31.0782V21.5846C19.2188 21.4167 19.1513 21.2557 19.0311 21.137C18.911 21.0183 18.748 20.9517 18.5781 20.9517H4.48438C4.31447 20.9517 4.15153 21.0183 4.03138 21.137C3.91124 21.2557 3.84375 21.4167 3.84375 21.5846V31.0782C3.84375 31.246 3.91124 31.407 4.03138 31.5257C4.15153 31.6444 4.31447 31.7111 4.48438 31.7111ZM5.125 22.2175H17.9375V30.4453H5.125V22.2175Z" fill="#4628A4"/>
<path d="M30.1094 31.7112H31.3906V32.977H30.1094V31.7112Z" fill="#4628A4"/>
<path d="M35.2344 31.7112H36.5156V32.977H35.2344V31.7112Z" fill="#4628A4"/>
<path d="M33.3125 36.1415C32.9727 36.1415 32.6468 36.0082 32.4065 35.7708C32.1662 35.5334 32.0312 35.2114 32.0312 34.8757H30.75C30.75 35.5472 31.02 36.1911 31.5005 36.6659C31.9811 37.1406 32.6329 37.4074 33.3125 37.4074C33.9921 37.4074 34.6439 37.1406 35.1245 36.6659C35.605 36.1911 35.875 35.5472 35.875 34.8757H34.5938C34.5938 35.2114 34.4588 35.5334 34.2185 35.7708C33.9782 36.0082 33.6523 36.1415 33.3125 36.1415Z" fill="#4628A4"/>
<path d="M14.4141 13.4404L9.92969 10.9088C9.83221 10.8532 9.72162 10.8239 9.60906 10.824C9.4965 10.824 9.38594 10.8534 9.28852 10.9091C9.19109 10.9648 9.11024 11.0449 9.0541 11.1412C8.99797 11.2376 8.96853 11.3469 8.96875 11.4581V16.5214C8.96853 16.6326 8.99797 16.7419 9.0541 16.8383C9.11024 16.9347 9.19109 17.0147 9.28852 17.0704C9.38594 17.1261 9.4965 17.1555 9.60906 17.1555C9.72162 17.1556 9.83221 17.1263 9.92969 17.0707L14.4141 14.5391C14.512 14.4837 14.5935 14.4038 14.6501 14.3073C14.7067 14.2108 14.7366 14.1013 14.7366 13.9898C14.7366 13.8782 14.7067 13.7687 14.6501 13.6722C14.5935 13.5757 14.512 13.4958 14.4141 13.4404ZM10.25 15.4302V12.5493L12.8023 13.9898L10.25 15.4302Z" fill="#4628A4"/>
<path d="M33.9531 20.3188C34.075 20.3189 34.1943 20.2846 34.2971 20.22C34.3999 20.1555 34.482 20.0632 34.5336 19.9542C34.5853 19.8452 34.6044 19.7239 34.5887 19.6045C34.573 19.4851 34.5232 19.3726 34.4451 19.2802L31.242 15.4828C31.185 15.4152 31.1144 15.3601 31.0347 15.321C30.9549 15.2819 30.8678 15.2596 30.7788 15.2556C30.6898 15.2502 30.6006 15.264 30.5175 15.2959C30.4343 15.3278 30.3591 15.3771 30.2971 15.4404L29.3573 16.3695L28.0331 14.8442C27.9713 14.7777 27.8961 14.7247 27.8124 14.6883C27.7287 14.652 27.6383 14.6333 27.5469 14.6333C27.4555 14.6333 27.3651 14.652 27.2814 14.6883C27.1977 14.7247 27.1225 14.7777 27.0606 14.8442L23.2169 19.2746C23.1373 19.3665 23.0861 19.479 23.0692 19.5987C23.0524 19.7185 23.0706 19.8406 23.1217 19.9504C23.1729 20.0603 23.2548 20.1534 23.3579 20.2187C23.4609 20.284 23.5807 20.3187 23.7031 20.3188H33.9531ZM25.0959 19.053L27.5469 16.2277L29.9979 19.053H25.0959ZM30.7071 16.8258L32.5854 19.053H31.6853L30.1933 17.3334L30.7071 16.8258Z" fill="#4628A4"/>
<path d="M39.0781 1.9646H1.92188C1.75197 1.9646 1.58903 2.03128 1.46888 2.14997C1.34874 2.26867 1.28125 2.42965 1.28125 2.59751V33.6099C1.28125 33.7778 1.34874 33.9388 1.46888 34.0575C1.58903 34.1762 1.75197 34.2428 1.92188 34.2428H26.9389C27.1046 35.8573 27.8916 37.3473 29.1375 38.4049C30.3833 39.4624 31.9927 40.0068 33.6332 39.9256C35.2737 39.8444 36.82 39.1437 37.9525 37.9683C39.085 36.7929 39.7173 35.2327 39.7188 33.6099V2.59751C39.7188 2.42965 39.6513 2.26867 39.5311 2.14997C39.411 2.03128 39.248 1.9646 39.0781 1.9646ZM33.3125 38.6732C32.2989 38.6732 31.308 38.3762 30.4652 37.8199C29.6224 37.2635 28.9655 36.4727 28.5776 35.5476C28.1897 34.6224 28.0882 33.6043 28.286 32.6221C28.4837 31.64 28.9718 30.7378 29.6886 30.0297C30.4053 29.3216 31.3185 28.8393 32.3127 28.644C33.3068 28.4486 34.3373 28.5489 35.2738 28.9321C36.2102 29.3153 37.0106 29.9643 37.5738 30.7969C38.1369 31.6296 38.4375 32.6085 38.4375 33.6099C38.436 34.9523 37.8955 36.2393 36.9347 37.1885C35.9739 38.1377 34.6713 38.6717 33.3125 38.6732ZM27.773 30.4454H21.7812V9.55948H35.875V27.8131C34.4336 27.1878 32.8092 27.1106 31.3138 27.5965C29.8183 28.0823 28.5574 29.0969 27.773 30.4454ZM38.4375 29.8289C38.073 29.3481 37.6417 28.9205 37.1562 28.5587V8.92657C37.1562 8.75872 37.0888 8.59773 36.9686 8.47904C36.8485 8.36035 36.6855 8.29367 36.5156 8.29367H21.1406C20.9707 8.29367 20.8078 8.36035 20.6876 8.47904C20.5675 8.59773 20.5 8.75872 20.5 8.92657V31.0783C20.5 31.2462 20.5675 31.4071 20.6876 31.5258C20.8078 31.6445 20.9707 31.7112 21.1406 31.7112H27.2016C27.07 32.1231 26.982 32.5473 26.9389 32.977H2.5625V7.02785H38.4375V29.8289ZM38.4375 5.76204H2.5625V3.23041H38.4375V5.76204Z" fill="#4628A4"/>
<path d="M6.40625 23.4834H16.6562V24.7492H6.40625V23.4834Z" fill="#4628A4"/>
<path d="M6.40625 26.0149H16.6562V27.2807H6.40625V26.0149Z" fill="#4628A4"/>
</svg>
