<svg width="33" height="34" viewBox="0 0 33 34" fill="none" xmlns="http://www.w3.org/2000/svg">
<g clip-path="url(#clip0_1_516)">
<path d="M15.8125 17C15.433 17 15.125 16.6957 15.125 16.3208V9.52858C15.125 9.15365 15.433 8.84937 15.8125 8.84937H17.875C19.3916 8.84937 20.625 10.0679 20.625 11.5662C20.625 13.0646 19.3916 14.2831 17.875 14.2831H16.5V16.3208C16.5 16.6957 16.192 17 15.8125 17ZM16.5 12.9247H17.875C18.634 12.9247 19.25 12.3147 19.25 11.5662C19.25 10.8177 18.634 10.2078 17.875 10.2078H16.5V12.9247Z" fill="#00329B"/>
<path d="M19.9375 17.0001C19.7615 17.0001 19.5855 16.9335 19.4508 16.8017L16.7008 14.0849C16.4326 13.82 16.4326 13.3893 16.7008 13.1245C16.9689 12.8596 17.4048 12.8596 17.6729 13.1245L20.4229 15.8413C20.691 16.1062 20.691 16.5368 20.4229 16.8017C20.2895 16.9335 20.1135 17.0001 19.9375 17.0001Z" fill="#00329B"/>
<path d="M9.625 16.9998C9.32112 16.9998 9.05437 16.8028 8.96637 16.5162L6.90387 9.72405C6.79387 9.36542 7.00012 8.98642 7.36449 8.87774C7.7275 8.77178 8.11112 8.97419 8.22112 9.33282L9.625 13.9569L11.0289 9.33417C11.1375 8.97419 11.5239 8.77314 11.8841 8.8791C12.2485 8.98777 12.4547 9.36542 12.3447 9.7254L10.2822 16.5176C10.1956 16.8028 9.92887 16.9998 9.625 16.9998Z" fill="#00329B"/>
<path d="M25.4375 12.9247C24.3004 12.9247 23.375 12.0104 23.375 10.887C23.375 9.76359 24.3004 8.84937 25.4375 8.84937C26.5746 8.84937 27.5 9.76359 27.5 10.887C27.5 12.0104 26.5746 12.9247 25.4375 12.9247ZM25.4375 10.2078C25.0594 10.2078 24.75 10.5121 24.75 10.887C24.75 11.2619 25.0594 11.5662 25.4375 11.5662C25.8156 11.5662 26.125 11.2619 26.125 10.887C26.125 10.5121 25.8156 10.2078 25.4375 10.2078Z" fill="#00329B"/>
<path d="M29.5625 23.792H20.8587C20.5631 23.792 20.3005 23.6045 20.2056 23.3274L19.602 21.5343C19.5071 21.264 19.2417 21.0751 18.9475 21.0751H14.0525C13.7582 21.0751 13.4942 21.264 13.3939 21.5451L12.793 23.3288C12.6995 23.6045 12.4369 23.792 12.1412 23.792H3.43749C1.54137 23.792 -7.62939e-06 22.2678 -7.62939e-06 20.3959V8.17001C-7.62939e-06 6.29809 1.54137 4.77393 3.43749 4.77393H29.5625C31.4586 4.77393 33 6.29809 33 8.17001V20.3959C33 22.2678 31.4586 23.792 29.5625 23.792ZM21.3537 22.4336H29.5625C30.6996 22.4336 31.625 21.5193 31.625 20.3959V8.17001C31.625 7.04659 30.6996 6.13236 29.5625 6.13236H3.43749C2.30037 6.13236 1.37499 7.04659 1.37499 8.17001V20.3959C1.37499 21.5193 2.30037 22.4336 3.43749 22.4336H11.6462L12.0931 21.105C12.3901 20.2709 13.1752 19.7167 14.0525 19.7167H18.9489C19.8261 19.7167 20.6112 20.2709 20.9041 21.0955L21.3537 22.4336Z" fill="#00329B"/>
<path d="M28.1875 6.13247C27.808 6.13247 27.5 5.82818 27.5 5.45325V4.09481C27.5 2.97139 26.5746 2.05716 25.4375 2.05716H7.56249C6.42537 2.05716 5.49999 2.97139 5.49999 4.09481V5.45325C5.49999 5.82818 5.19199 6.13247 4.81249 6.13247C4.43299 6.13247 4.12499 5.82818 4.12499 5.45325V4.09481C4.12499 2.22289 5.66637 0.69873 7.56249 0.69873H25.4375C27.3336 0.69873 28.875 2.22289 28.875 4.09481V5.45325C28.875 5.82818 28.567 6.13247 28.1875 6.13247Z" fill="#00329B"/>
<path d="M15.125 33.3011C14.9174 33.3011 14.7097 33.2074 14.575 33.0295C14.3481 32.7292 14.41 32.3041 14.7139 32.0786L16.731 30.5843L14.7125 29.09C14.4086 28.8645 14.3467 28.4393 14.5736 28.1391C14.8032 27.8375 15.2336 27.7805 15.5361 28.0033L18.2861 30.0409C18.4594 30.1686 18.5611 30.371 18.5611 30.5843C18.5611 30.7976 18.4594 31 18.2861 31.1277L15.5361 33.1653C15.4137 33.2563 15.268 33.3011 15.125 33.3011Z" fill="#00329B"/>
<path d="M16.5 31.2634C15.0906 31.2634 13.6537 31.2118 12.2306 31.1126C6.31812 30.6915 -7.62939e-06 29.2611 -7.62939e-06 26.5089C-7.62939e-06 26.2223 0.0756174 25.9275 0.224117 25.6341C0.394617 25.2972 0.809867 25.1627 1.14812 25.3311C1.48637 25.4996 1.62387 25.9071 1.45474 26.2426C1.40249 26.3459 1.37499 26.4355 1.37499 26.5089C1.37499 27.5046 4.85512 29.2258 12.3282 29.7583C13.7294 29.8561 15.1209 29.9525 16.5289 29.905C16.8534 29.905 17.1655 29.905 17.4762 29.8927C17.8736 29.8764 18.1761 30.1685 18.1926 30.5434C18.2077 30.9184 17.9121 31.2349 17.534 31.2498C17.193 31.2634 16.8534 31.2634 16.5 31.2634Z" fill="#00329B"/>
<path d="M21.2974 31.0597C20.944 31.0597 20.6429 30.7908 20.614 30.4362C20.5838 30.0626 20.8643 29.7339 21.2424 29.7027C28.3264 29.1308 31.625 27.4585 31.625 26.509C31.625 26.4356 31.5975 26.346 31.5453 26.2427C31.3761 25.9072 31.5136 25.4997 31.8519 25.3312C32.1888 25.1614 32.604 25.2973 32.7759 25.6342C32.9244 25.9276 33 26.2224 33 26.509C33 29.8548 24.0873 30.837 21.3551 31.0584C21.3373 31.0597 21.3166 31.0597 21.2974 31.0597Z" fill="#00329B"/>
</g>
<defs>
<clipPath id="clip0_1_516">
<rect width="33" height="32.6024" fill="white" transform="translate(0 0.69873)"/>
</clipPath>
</defs>
</svg>
